<svg id="Layer_1" data-name="Layer 1" xmlns="http://www.w3.org/2000/svg" xmlns:xlink="http://www.w3.org/1999/xlink" viewBox="0 0 589.54 112.35"><defs><style>.cls-1{fill:none;}.cls-2{clip-path:url(#clip-path);}.cls-3{clip-path:url(#clip-path-2);}.cls-4{fill:url(#linear-gradient);}.cls-5{clip-path:url(#clip-path-3);}.cls-6{fill:url(#linear-gradient-2);}.cls-7{clip-path:url(#clip-path-4);}.cls-8{fill:url(#linear-gradient-3);}.cls-9{clip-path:url(#clip-path-5);}.cls-10{fill:url(#linear-gradient-4);}.cls-11{clip-path:url(#clip-path-6);}.cls-12{fill:url(#linear-gradient-5);}.cls-13{clip-path:url(#clip-path-7);}.cls-14{fill:url(#linear-gradient-6);}.cls-15{clip-path:url(#clip-path-8);}.cls-16{fill:url(#linear-gradient-7);}.cls-17,.cls-19{fill:#c72127;}.cls-17{fill-rule:evenodd;}.cls-18{fill:#231f20;}.cls-20{fill:#010101;}</style><clipPath id="clip-path" transform="translate(-9.77 -10.32)"><rect class="cls-1" x="0.77" y="0.68" width="608" height="131"/></clipPath><clipPath id="clip-path-2" transform="translate(-9.77 -10.32)"><polygon class="cls-1" points="67.48 68.03 40.15 95.35 67.48 122.67 67.48 68.03"/></clipPath><linearGradient id="linear-gradient" x1="44.05" y1="112.35" x2="44.05" y2="57.7" gradientUnits="userSpaceOnUse"><stop offset="0" stop-color="#134d8b"/><stop offset="1" stop-color="#213164"/></linearGradient><clipPath id="clip-path-3" transform="translate(-9.77 -10.32)"><polygon class="cls-1" points="67.48 122.67 94.81 95.35 67.48 68.03 67.48 122.67"/></clipPath><linearGradient id="linear-gradient-2" x1="71.37" y1="57.7" x2="71.37" y2="112.35" xlink:href="#linear-gradient"/><clipPath id="clip-path-4" transform="translate(-9.77 -10.32)"><polygon class="cls-1" points="40.15 95.35 12.83 68.03 40.15 40.7 40.15 95.35"/></clipPath><linearGradient id="linear-gradient-3" x1="16.72" y1="30.38" x2="16.72" y2="85.03" xlink:href="#linear-gradient"/><clipPath id="clip-path-5" transform="translate(-9.77 -10.32)"><polygon class="cls-1" points="40.15 40.7 67.48 68.03 40.15 95.35 40.15 40.7"/></clipPath><linearGradient id="linear-gradient-4" x1="44.05" y1="85.03" x2="44.05" y2="30.38" xlink:href="#linear-gradient"/><clipPath id="clip-path-6" transform="translate(-9.77 -10.32)"><polygon class="cls-1" points="122.13 13.38 94.81 40.7 122.13 68.03 122.13 13.38"/></clipPath><linearGradient id="linear-gradient-5" x1="98.7" y1="57.7" x2="98.7" y2="3.06" xlink:href="#linear-gradient"/><clipPath id="clip-path-7" transform="translate(-9.77 -10.32)"><polygon class="cls-1" points="94.81 40.7 122.13 68.03 94.81 95.35 94.81 40.7"/></clipPath><linearGradient id="linear-gradient-6" x1="98.7" y1="85.03" x2="98.7" y2="30.38" xlink:href="#linear-gradient"/><clipPath id="clip-path-8" transform="translate(-9.77 -10.32)"><polygon class="cls-1" points="94.81 95.35 67.48 68.03 94.81 40.7 94.81 95.35"/></clipPath><linearGradient id="linear-gradient-7" x1="71.37" y1="30.38" x2="71.37" y2="85.03" xlink:href="#linear-gradient"/></defs><g class="cls-2"><g class="cls-3"><rect class="cls-4" x="30.38" y="57.7" width="27.33" height="54.65"/></g><g class="cls-5"><rect class="cls-6" x="57.71" y="57.7" width="27.33" height="54.65"/></g><g class="cls-7"><rect class="cls-8" x="3.06" y="30.38" width="27.33" height="54.65"/></g><g class="cls-9"><rect class="cls-10" x="30.38" y="30.38" width="27.33" height="54.65"/></g><g class="cls-11"><rect class="cls-12" x="85.03" y="3.06" width="27.33" height="54.65"/></g><g class="cls-13"><rect class="cls-14" x="85.03" y="30.38" width="27.33" height="54.65"/></g><g class="cls-15"><rect class="cls-16" x="57.71" y="30.38" width="27.33" height="54.65"/></g><polygon class="cls-17" points="0 0 27.33 27.32 0 54.65 0 0"/><rect class="cls-18" x="124.36" width="3.07" height="112.3"/><path class="cls-19" d="M198.8,43.92h5V89.11h-9V47.89h0a4,4,0,0,1,4-4m-15,0a4.12,4.12,0,0,0-4.39,3.39l-8.87,30.39L159.07,43.89h-9.2L166,89.11h9l15.33-45.22ZM208.3,89.11h9V58.92l18,30.18h9V43.89h-9V74.07l-18-30.18-5,0a4,4,0,0,0-4,4h0Z" transform="translate(-9.77 -10.32)"/><path class="cls-20" d="M518.42,51.83H531.9V89.11h9V51.83h13.48V43.89h-32a4,4,0,0,0-4,4v4m-35.8,29.86c-5.87,0-8.91-2.32-9.24-7h-8.9c.27,9.55,6.27,14.39,18.14,14.39,11.34,0,17.27-4.26,17.8-12.84q.39-8.33-7.12-10.83a100.23,100.23,0,0,0-10.68-3c-5.87-1.31-9.45-3.46-9.36-6.23.11-3.36,3.22-5,8-5,3.89,0,6.59,1.23,8.11,3.74a4.31,4.31,0,0,0,4.09,2.58h5.14c-.53-9.09-6-13.57-16.55-13.61-11.08,0-17.41,4.28-17.53,13.5-.08,5.81,5,10,13.77,12.17,3.24.82,6.27,1.62,8.91,2.39s4.08,2.19,4.08,4.32C491.32,79.88,488.48,81.69,482.62,81.69Zm-32.33-24c0,4.38-2.39,6-6.66,6H433V51.84h11.13C448.16,51.84,450.29,53.53,450.29,57.66Zm9.12-.87c0-9.31-5.05-12.9-14.16-12.9H428.56A4.75,4.75,0,0,0,424,48.75V89.11h9V71.55h9.57c5.31,0,6.28,1.73,6.6,7.18a51.54,51.54,0,0,0,.39,7.65,6.83,6.83,0,0,0,.71,2.73h9.89a3.71,3.71,0,0,1-1.42-3l-.39-8.84A18.3,18.3,0,0,0,457,70.56a8.08,8.08,0,0,0-4.21-3.13C457,66.23,459.41,62.51,459.41,56.79Zm-45.81,8.6a3.81,3.81,0,0,1-3.81,3.7H397.07v11.7h22.47v8.32H388.08V48.75c0-3.13,1.49-4.86,4.52-4.86h26.94v8H397.07v9.61h16.65v3.83Zm95.32-21.47h5V89.11h-9V47.89h0A4,4,0,0,1,508.92,43.92ZM248.75,72.22c0,22.66,35.95,22.37,35.95,0V43.89h-9V71.18c0,13.28-18,13.11-18,0V43.89h-5a4,4,0,0,0-4,4h0ZM289.2,89.11h9V58.92l18,30.18h9V43.89h-9V74.07l-18-30.18h-5a4,4,0,0,0-4,4h0Zm44.43-45.19h5V89.11h-9V47.89h0A4,4,0,0,1,333.63,43.92Zm43.48,0c-2.45,0-3.74,1.17-4.39,3.39l-8.87,30.39L352.33,43.89h-9.2l16.09,45.22h9l15.33-45.22ZM583.59,89.11V72.22l15.73-28.33h-7.56a4.43,4.43,0,0,0-4.25,2.73l-8.2,16.75-9.17-19.48H558.87L574.6,72.22V89.11Z" transform="translate(-9.77 -10.32)"/></g></svg>